<svg xmlns="http://www.w3.org/2000/svg" version="1.0" viewBox="0 0 1600 1148"><path d="M1125.5 344.2c-43.9 1.3-46.2 1.5-49 4.6-3.4 4-10.9 14.8-15.6 22.7-2.3 3.8-5.4 8.6-6.9 10.5-1.5 1.9-3.5 4.8-4.4 6.5-1.9 3.5-5.4 8.8-11.1 16.9-2.2 3.2-4.9 7.4-6 9.4-1.1 2-4.1 6.9-6.6 10.8-2.6 3.9-5.4 8.4-6.3 10-1 1.6-3.7 5.6-6 8.9-2.4 3.3-7 10-10.1 15-3.2 4.9-6.9 10.6-8.1 12.6-1.3 1.9-2.4 4-2.4 4.5 0 .6-1.1 2.1-2.5 3.4-2.2 2.1-5.5 7.1-10.5 15.9-.8 1.4-2.4 4-3.5 5.6-2.3 3.5-3.4 5.3-7.2 11.5-1.5 2.5-3.9 6-5.5 7.8-1.5 1.8-2.8 3.6-2.8 4.1 0 .5-1.4 2.6-3.1 4.7-1.7 2.2-3.7 5.2-4.5 6.9-1.7 3.5-11.1 18.5-14.9 23.5-4.4 5.9-12.7 19.1-19.2 30.5-1.9 3.3-4.3 6.9-5.3 8-1 1.1-3.2 4.8-5 8.2-2.3 4.4-4.1 6.5-6.4 7.5-2.4 1-11.7 1.3-40.3 1.3-20.4 0-37.5-.3-37.9-.8-.9-.9 2.5-3.6 4.6-3.7 2.3 0 20.7-8.6 27.2-12.5 3.1-1.9 6.1-3.5 6.8-3.5 1.5 0 8.6-5.6 21.7-17.2 10.1-9 17.3-17.4 29-33.8 6-8.5 7.5-11 11.3-18.7 1.1-2.3 2.5-4.5 3-4.8.6-.3 1-1.4 1-2.4s.9-3 2-4.4c1.1-1.4 2-3 2-3.7 0-.6 1.2-3.7 2.6-6.8 5.1-11.5 5.7-12.8 7.6-18.7 3.5-10.3 5.7-18.5 9.1-33 3.1-13.5 3.2-14.7 3-34-.2-25.8-1.7-31.7-11.1-45.2-8.5-12.2-24.1-21.2-43.2-24.9-9.3-1.8-58.5-3.3-109.6-3.4-32.9 0-37.3.2-38.5 1.6-.7.9-2.5 5-4 9.3-1.5 4.2-4.4 12.1-6.4 17.6-3.7 10.2-8.9 25.1-21.3 61.2-3.9 11-7.2 20.5-7.5 21-.7 1.2-2.9 7.3-7.2 20.3-2 5.8-4.2 11.8-4.9 13.5-.7 1.6-2.1 5.2-3.1 8-2.8 8.1-14.1 39.9-19.5 55-2.8 7.7-5.5 15.3-6 17-6.2 20.9-13.7 39.1-17.2 42-5.2 4.4-17.2 6.2-18.5 2.8-.4-1 .7-7.4 2.5-14.2 1.7-6.9 2.9-12.7 2.6-13-.3-.3-24-.9-52.7-1.3-28.7-.4-52.7-1-53.4-1.2-2.7-1.1-2-3.9 8.4-31.1 1.9-5 3.7-10.1 4-11.5.3-1.4 1.5-4.8 2.8-7.5 1.2-2.8 3.4-9.1 4.9-14 1.5-5 3.2-9.8 3.8-10.9.5-1 1.7-4.2 2.5-7 2.1-6.9 4.9-12.3 7.2-13.5 1.1-.6 14.4-1.3 30.7-1.6 15.9-.3 33.5-.8 39.1-1.1 11.5-.7 9.8.9 14.7-13.2 4-11.4 3.3-16.1-2.7-18.1-1.8-.6-16.1-1.6-31.7-2.1-33.9-1.2-35.4-1.5-35.8-5.5-.4-5 21.1-66 23.6-67 .9-.3 20.5-1.3 43.7-2 23.1-.8 44.3-1.7 47.2-2.1l5.2-.5 2.9-7.7c4.2-11 5.8-18 4.5-19.3-2.8-2.8-11-3.2-91.8-3.6-66.4-.3-83.5-.1-85.4.9-1.9 1.1-3.8 5.5-10.3 24.8-9.6 28.7-10 29.8-13.4 38.5-4.5 11.9-7.3 19.5-12.1 33-2.5 7.1-6.5 17.9-8.8 24-2.4 6-5.5 14.6-7 19-1.4 4.4-3 8.9-3.5 10-.4 1.1-1.8 4.9-3 8.5-1.2 3.6-2.6 7.4-3.2 8.5-.6 1.1-1.7 4-2.4 6.5-1.2 4.3-7.5 22.4-16.4 47-2.3 6.3-6.5 18.3-9.4 26.6-2.9 8.2-5.6 15.6-6.1 16.4-1.6 2.6-13.3 38.4-12.9 39.2.3.4 161.1.8 357.5.8H1140v-14.8c0-8.2.4-19.5 1-25.3.5-5.7 1.2-17.2 1.5-25.4 2.7-74 7.7-158.2 12-198.5 1.2-11.7 2.9-32.6 3-36.9 0-3.4-3.4-3.7-32-2.9zm-275 31.2c12.1 3.4 17.4 7.9 19.6 16.9 2.2 9.2.1 32.2-4.1 45.2-.6 1.6-3.8 11.5-7.1 22-5.4 16.9-9.3 27.8-11.8 34-.5 1.1-1.7 4.2-2.7 7-3.6 10.2-16.1 36.4-22.4 46.7-2.2 3.7-4 7.1-4 7.6 0 2.1-22.7 23.9-27.7 26.5-9.8 5.2-27.4 8.3-32.4 5.7-2.3-1.3-2.4-3.7-.5-8.2 4.9-11.6 8.4-20.7 9-23.3.4-1.7 1.8-5.7 3.1-9s4.2-11.6 6.4-18.5 5.6-17 7.6-22.5 4.7-13.2 6-17c1.2-3.9 2.9-8.6 3.8-10.5.8-1.9 2.5-6.9 3.7-11 1.2-4.1 2.7-8.6 3.5-10 .7-1.4 3.6-9.3 6.4-17.5 2.8-8.3 7.6-22 10.6-30.5 3.1-8.5 6.7-19.1 8.2-23.5 1.4-4.4 3.4-8.8 4.5-9.8 2.5-2.1 13-2.3 20.3-.3zm211.5 75.8c-.1 4-.5 12.9-1 19.8s-1.4 19.5-2 28c-1.6 23.1-2 25.9-3.6 27.5-1.2 1.2-4.4 1.5-15.3 1.5-20.3 0-32.2-1-32.8-2.8-.6-1.5 3.9-11.4 6.7-14.7 2.2-2.5 21-31.6 22.9-35.3.7-1.5 2.3-3.8 3.6-5.2 1.2-1.4 3.2-4.3 4.5-6.5 1.3-2.2 3.5-5.4 4.9-7.2 1.4-1.7 4.1-5.2 5.9-7.7 4.8-6.8 6.2-6.2 6.2 2.6zm-9.4 112.1c1.1 1-2.3 45.5-3.7 49.5-.9 2.5-1.8 3.3-4.7 3.8-7.3 1.4-94.2-1.2-95.8-2.9-.4-.3.9-3 2.8-5.9 1.9-2.9 4.7-7.1 6.1-9.3 1.5-2.2 6.2-9.4 10.6-16 4.3-6.6 9.6-13.9 11.6-16.2l3.7-4.3 34.3.3c18.9.1 34.7.6 35.1 1zM493.5 677c-.3.5-2.4 1-4.5 1s-4.2.5-4.5 1.1c-.4.5-1.2.8-1.8.6-1.3-.5-12.1 4.8-15 7.3-1 .8-2.1 1.5-2.5 1.5-.4 0-1.6.9-2.8 2-1.2 1.1-3 2.7-4 3.6-2.4 2-7.4 7.9-7.4 8.8-.1.3-1.4 2.1-3 4s-2.7 3.8-2.4 4.2c.2.4-.1 1.1-.6 1.4-1 .6-2.7 4-3.6 7-3.1 10.5-3.5 13.4-3.1 23.4.6 11.7.7 13.1 1.7 13.1.3 0 1.2 1.7 2 3.7 1.7 4.8 7.2 12.4 13.6 18.6 4.6 4.6 13.6 9.7 16.9 9.7.8 0 1.5.4 1.5.8s.8.8 1.8.9c.9 0 4.1.6 7.1 1.2 2.9.6 8 1.1 11.3 1.1 7.2 0 19.8-2 19.8-3.1 0-.5.7-.6 1.5-.3.8.4 1.5.1 1.5-.6 0-.6.4-.9 1-.5.5.3 2.5-.1 4.4-.9 1.9-.8 3.7-1.2 4-.9.3.3.8-.2 1.2-1.1.3-.9 1-1.4 1.4-1.1.4.2 1.7-.4 3-1.5 3.2-2.8 2.3-5.1-4.8-12.5-3.3-3.4-5.2-4.4-5.2-2.7 0 .7-2.4 1.2-6.7 1.5-.7 0-1.1.3-.8.5.3.3-1.9 1.4-4.8 2.4-4.3 1.6-7.1 1.9-16.3 1.5-13.4-.5-20-3.1-25.6-9.9-3.9-4.7-8.4-18.3-7.3-21.8.3-1.1.1-2.9-.5-4-.9-1.6-.8-2.5 0-3.5.7-.8.9-1.9.6-2.4-.4-.6 0-2.6.8-4.5s1.2-3.7.8-4c-.3-.3 0-.6.7-.6s.9-.5.6-1c-.3-.6.1-1.3.9-1.6.9-.3 1.4-1 1.1-1.4-.3-.4.5-1.9 1.6-3.4 1.1-1.4 1.8-2.6 1.6-2.6-2.3 0 15-13.6 17.6-13.8.4 0 2.8-.8 5.2-1.8 6.6-2.5 20.2-1.6 27.6 1.9 3 1.4 6.6 2.8 8 3.1 1.3.3 3.6.9 5.2 1.2 1.8.4 2.7.2 2.7-.7 0-.7.3-.9.6-.6.4.4 1.5-.3 2.5-1.5 1.8-1.9 2-2.7 1.8-4.4 0-.4.5-1 1.2-1.5 1.6-1-3.2-7.5-6.7-9.1-1.3-.6-2.4-1.5-2.4-2 0-.4-.8-.8-1.8-.8s-2.7-.6-3.7-1.4c-1.1-.8-2.5-1.2-3.2-.9-.7.3-1.3.1-1.3-.4s-.6-1-1.2-1c-.7-.1-3.7-.6-6.7-1.2-6.7-1.4-19.8-1.4-20.6-.1zm391.7 1c-1.3.6-2.8.8-3.2.5-.5-.3-1.2-.1-1.5.5-.4.6-1.4.8-2.3.6-1-.3-4 .5-6.9 1.8-2.8 1.4-5.3 2.2-5.6 2-.2-.3-1 .2-1.7 1.1-.7.8-2.2 1.5-3.4 1.5-1.3 0-3.7 1.3-5.6 3-1.8 1.6-3.6 3.1-3.9 3.2-.3.2-2.6 2.5-5.1 5.3-2.5 2.7-4.6 4.8-4.7 4.5-.4-.8-7.3 11-9.9 16.8-1.4 2.9-2.2 5.8-1.9 6.3.4.5.1.9-.5.9-.7 0-.9.7-.6 1.6.3.9.3 2.1 0 2.6-1 1.5-1.1 21.8-.1 21.8.4 0 .5 1 .2 2.3-.4 1.6.8 5.1 4 11.3 5.4 10.4 7.7 13.1 16.3 18.7 3.4 2.3 6.2 4.5 6.2 5s.7.6 1.6.3c.9-.3 3.1.3 4.9 1.4 1.7 1.1 3.5 1.7 3.8 1.4.3-.3 1.1-.2 1.8.2 1.5.9 3.1 1 16.4 1.4 5.5.1 10.8-.1 11.7-.5.9-.4 2.2-.4 2.8 0 .5.3 1 .1 1-.5 0-.7.8-.9 2-.5s2 .2 2-.5c0-.6.4-.9.9-.6.5.3 2.7-.1 4.9-.8 2.2-.8 4.3-1.2 4.6-.9.3.4.6.1.6-.6s.4-1 .8-.7c.5.3 2.4-.5 4.3-1.8s3.8-2.5 4.4-2.7c1.5-.6.6-3-3.1-8.2-1.9-2.6-3.4-5.1-3.4-5.5 0-1.7-6.4-.5-14.5 2.6-2.7 1.1-5.5 1.7-6.2 1.5-.6-.2-1.4 0-1.7.6-.3.5-1.5.7-2.6.4-1.1-.3-2.6 0-3.4.6-.9.7-2.8.8-6.1.2-2.7-.5-5.4-.7-6.1-.4-.6.2-1.5-.1-1.9-.6-.3-.6-1-.9-1.5-.6-.5.3-1.1.1-1.5-.4-.3-.6-1.2-.8-2-.5-.8.3-2 .1-2.7-.5-6.6-5.3-8.8-7.5-8.8-8.9 0-.8-.3-1.2-.7-.9-.8.9-7.3-10.4-6.7-11.5.3-.5 0-.8-.6-.8s-.8-1-.4-2.5c.3-1.4.3-3.3-.1-4.2-1.2-2.9-1.3-8.7-.3-10 .6-.7.8-2.2.5-3.3-.3-1.1 0-2 .6-2s.7-.3.4-.6c-.5-.6 3.7-9 5.3-10.4.3-.3 1.3-2.2 2.2-4.3 1-2 2.1-3.7 2.6-3.7s1.7-.8 2.8-1.8c2.5-2.2 7.7-5.6 8.7-5.7.4 0 1.2-.7 1.7-1.5s1-1.1 1-.6c0 .5.7.3 1.5-.4.8-.6 1.8-.9 2.4-.6.5.3 1.1.1 1.3-.6.3-.7 2-1.2 4.1-1.1 2 .1 3.7-.3 3.7-.8 0-1.3 8.7-1.1 9.5.1.4.6 1.5.8 2.6.5 1.2-.4 1.9-.2 1.9.6 0 .7.3 1 .6.6.4-.3 2.8.2 5.5 1.3 2.7 1 4.9 1.6 4.9 1.3 0-.2.7.3 1.6 1.1 5.5 5.5 16 .5 17-8.1.3-2.1-3.6-7.3-5.4-7.3-.4 0-1.4-.6-2-1.3-.7-.6-1.7-1.3-2.2-1.3-.6-.1-1.2-.3-1.5-.4-.3-.1-.8-.3-1.2-.4-.5-.1-2.6-1-4.8-2-2.1-.9-4.8-1.9-6-2.1-1.1-.2-2-.4-2-.5 0 0-2.2-.3-5-.5-2.7-.2-7-.7-9.5-.9-2.5-.3-5.6-.1-6.8.4zM571 679.9c0 .5-.8.8-1.7.7-1.2-.1-1.7.5-1.5 1.6.2 1-.1 1.8-.5 1.8s-.8 1-.9 2.2c-.2 5.7-1.3 14.5-1.9 16-.4.9-.4 2.1-.1 2.7.4.5.2 1.2-.4 1.6-.5.3-.7 1.7-.4 3 .3 1.3.2 3-.2 3.7-.5.7-.7 2.5-.6 3.9.2 1.5-.3 5.3-1.1 8.5-1.5 6-1.8 8.4-1.7 14.1 0 1.8-.5 3.3-1.1 3.3-.7 0-.9 1-.5 2.4.3 1.4.1 5.8-.5 9.8-.7 4-1.2 8.3-1.1 9.5 0 1.3-.5 2.3-1 2.3-.6 0-.8 1.4-.4 3.5.4 2 .3 4.1-.1 4.8-.4.6-.9 4.2-1 7.9l-.2 6.8H575c14.2 0 21.1-.4 21.6-1.1.4-.7 2.1-.9 4-.6 2 .3 3.4.2 3.4-.4 0-.6.4-.7 1-.4 1.6 1 4.9-1.3 6.6-4.7 2-3.8.7-7.3-3.3-9-1.6-.6-9.2-1.3-17-1.6l-14.1-.4.4-4.7c.3-2.5.6-5.6.6-6.9 0-1.2.4-2.2 1-2.2.5 0 .7-.4.4-.9-.3-.4.2-4.8 1-9.7.9-4.9 1.6-10.1 1.6-11.7-.1-1.5.3-2.7.9-2.7.6 0 .8-.9.4-1.9-.3-1.1.1-6 1-10.9.8-4.9 1.2-9.7.9-10.6-.4-.9-.1-1.6.6-1.6.9 0 1.1-1 .6-3.1-.3-1.8-.1-3.8.4-4.5.8-.8.8-1.4 0-1.9s-.8-1.1.1-2.1c.6-.7 1.3-4.7 1.6-8.8l.4-7.3-3.2-.7c-4.7-.9-14.9-.7-14.9.3zm74 .9c0 .4-1.4.8-3.2.8-3.4.1-6 2.7-5.1 5 .3.8.1 1.4-.5 1.4-.5 0-.9.6-.9 1.2.1.7-.4 4.4-1.1 8.1-.7 3.7-1 7.2-.7 7.7.4.6.2 1-.4 1-.5 0-1 1.5-1 3.2 0 5.8-.3 8.1-2.2 20.2-1 6.5-1.6 12.3-1.3 12.7.3.5.2 1.5-.3 2.1-.4.7-.9 2.4-1 3.8-.5 6.7-1.4 15.1-2.3 20.4-.5 3.2-.7 6.2-.5 6.6.3.4-.1 1.3-.9 1.9-1.5 1.3-1.9 7.1-.5 7.1.6 0 .8.4.5.9-.5.8 3.2 4.9 4 4.3.2-.1.5-.1.7 0 .1 0 2.7.2 5.7.3 7.4.2 10.2-2.2 10.5-9.3.2-2.8.6-5.6 1-6.2.4-.6.4-2.8 0-4.9-.4-2.5-.2-4.1.5-4.6.6-.4.8-1.5.5-2.5-.3-1-.1-2.1.5-2.5.6-.3.8-1 .6-1.4-.3-.4.2-4.5 1-9.2 2.2-11.8 2.5-14 2.5-17.7-.1-1.7.2-3.2.7-3.2.4 0 .8-1.5.9-3.3.2-1.7.5-5.5.9-8.2.3-2.8.7-6.2.9-7.8.1-1.5.4-3 .5-3.5.1-.4.2-1.5.1-2.5-.1-.9.2-1.7.6-1.7.5 0 .9-.8.9-1.8.1-.9.4-4.9.9-8.7.6-5.8.4-7.3-.8-8.4-1.7-1.3-11.7-2.5-11.7-1.3zm108-.2c-2.2.7-6.2 8.7-5.4 10.7.3 1 .1 2.4-.6 3.2-.7.8-1 2.1-.7 3 .4.8.2 1.7-.4 2.1-.5.3-.7 1.4-.4 2.4.3 1 .1 2.1-.4 2.4-.6.4-.8 1.3-.5 2.1.3.8-.1 5.1-1 9.7s-1.6 9.4-1.6 10.8c-.1 3.5-.7 10.4-.9 11-.2.3-.5 2.9-.7 5.9-.5 6.2-.9 7-2.8 5-2.3-2.4-9.6-16.5-8.9-17.2.3-.4.1-.7-.5-.7-.7 0-1.1-.3-1-.8.2-.4-.5-1.6-1.5-2.7-.9-1.1-1.7-2.5-1.8-3 0-.6-1.4-3.4-3-6.4-1.7-2.9-2.8-5.5-2.6-5.8.3-.2-.6-1.5-2-2.9-1.3-1.3-3.4-4.6-4.5-7.2-4.5-10.1-9-16-14.4-18.7-5.2-2.6-14.4-3.4-17.2-1.6-.9.5-1.5 3.7-1.8 9.2-.2 4.6-.6 10-.9 11.9-.3 1.9-.5 4.4-.5 5.5 0 1.1-.7 5.3-1.6 9.2-.8 4-1.3 7.7-.9 8.2.3.5 0 1.3-.6 1.6-.6.5-.8 2.1-.4 4.1.3 1.9.2 3.4-.3 3.4s-.9 1.2-.9 2.7c-.1 1.6-.8 7.7-1.6 13.7-.8 6-1.3 11.5-1 12.3.3.7.1 1.3-.4 1.3-.6 0-1.1 1.5-1.1 3.2 0 1.8-.1 4.3-.2 5.5 0 1.2-.5 2.5-1 2.8-.5.3-.7 1.2-.4 1.9.3.8.1 3-.5 5-.9 3.3-.7 3.8 1.5 5.2 1.6 1.1 4.7 1.6 9.6 1.6 10.3 0 11-.1 10.4-1-.2-.4.2-3.8 1-7.5 1.3-6.2 2.5-18.4 2.6-24.7 0-1.4.4-3 .9-3.6.5-.6.7-1.8.3-2.7-.3-.8 0-4.1.6-7.4.7-3.2 1.3-6.5 1.5-7.3 1.1-6.5 3.1-12 4.4-12 .5 0 1.4 1.3 2.1 3 .7 1.6 1.6 3 2.1 3s.9.6.9 1.4c0 .8.7 2.2 1.5 3 .9.8 3.5 5.4 5.9 10.1 2.4 4.7 5 9.3 5.8 10.3.9.9 1.8 2.9 2.2 4.4.3 1.5 1.3 3.3 2.1 4.2.8.8 1.5 2.2 1.5 3 0 .9.4 1.6 1 1.6.5 0 .7.7.4 1.5-.4.8.1 1.7 1 2.1.9.3 1.6 1.1 1.6 1.7 0 .6.7 1.8 1.6 2.8.9 1 2.3 3.2 3.2 5 1 1.9 3.1 4.1 4.8 5.1 3.6 2.1 16.4 3.6 16.4 1.9 0-.6.6-.8 1.4-.5 1 .4 1.6-1.8 2.6-8.8.8-5.1 1.4-10.5 1.5-11.9.1-1.4.5-3 .8-3.6.4-.6.4-1.8.1-2.6-.3-.8 0-1.8.5-2.2.6-.3.9-1 .6-1.5-.3-.5.1-5.5.9-11.1.8-5.7 1.2-10.7 1-11.1-.3-.4 0-.8.6-.8.8 0 1-.9.6-2.4-.3-1.2-.2-2.6.2-3 .4-.4.8-2.2.9-3.9.4-6.2 1-11.3 2.1-17.7 1.4-8.3.8-22.8-1-24.7-1.4-1.4-10.1-2.6-12.8-1.7zm50.5.3c-1.1.2-2.6.8-3.2 1.3-.7.6-2 .8-2.8.4-.9-.3-1.3-.2-1 .4.3.6 0 1-.8 1-1.8 0-3.5 6.6-4.1 15.5-.1 1.1-.4 2.5-.9 3.2-.4.6-.4 1.8-.1 2.7.3.9.3 2.4-.1 3.3-.9 2.1-1.9 10.2-1.9 15.5-.1 2.1-.5 3.8-.9 3.8-.5 0-.8 1-.7 2.2.1 1.3.1 2.7 0 3.3-.2.5-.4 2.6-.5 4.5-.3 3.8-.9 9-2.4 19-.5 3.6-1 7.4-1.1 8.5-.3 6.1-.6 8.4-1.2 9-.3.4-.4 2.2-.1 4 .3 1.8.1 3.5-.5 3.8-1.4.9-.2 5.5 1.7 6.2 2.8 1.2 14.1 2.2 14.1 1.2 0-.5.7-.7 1.5-.3.9.3 1.5 0 1.5-1 0-.8.4-1.3.8-1 .4.2.9-.4.9-1.5.1-1 .9-6.6 1.8-12.4.9-5.7 1.4-10.9 1-11.5-.4-.6-.2-1.6.3-2.3.6-.7 1-2.3 1-3.7-.1-4.1.9-12.2 2.1-17.2 1.1-4.6 1.2-6.1 1.2-12.6 0-1.7.4-3.2.8-3.2.5 0 .7-.9.4-2-.3-1.1-.1-2 .3-2 .5 0 1-1.9 1.1-4.3.2-6 .9-11.2 1.7-12.6.4-.6.4-2 .1-3.1-.4-1.2-.2-2 .5-2 .6 0 .8-1 .4-2.5-.3-1.4-.2-2.5.3-2.5 1.1 0 .4-8.1-.9-9.6-.9-1.3-7.1-2.2-10.3-1.5zm193.7 5.6c-2.3 2.3-4.2 4.7-4.2 5.3 0 .6-.3 1.2-.7 1.4-1 .4-4.4 5.5-6.3 9.3-.8 1.6-1.8 3.3-2.3 3.6-.4.3-.9 1.6-1.2 2.9-.4 1.9-2.1 4.6-4.5 7-.3.3-1.8 3.3-3.5 6.8-1.6 3.5-3.5 6.8-4.1 7.3-.7.6-1 1.7-.7 2.5.3.7-.2 1.7-1.1 2-.9.3-1.6 1.2-1.6 2s-.4 1.4-1 1.4c-.5 0-1 .6-1 1.4 0 .7-1.1 3-2.5 5-1.4 2.1-2.3 4.2-2 4.7.4.5 0 1.2-.9 1.5-.9.3-1.2 1.2-.9 2.1.4 1 .2 1.4-.4 1-.9-.6-2.9 3.9-2.3 5.2.1.2-.2.7-.7 1-1.2.9-4.7 6.4-4.9 7.8-.1.7-1 2-1.9 2.9-.9.9-1.4 2.3-1.1 3.1.3.8.2 1.2-.2.9-.4-.2-1.8 2-3.1 5s-2.7 5.4-3.1 5.4c-.3 0-.5 1.3-.2 3l.4 3h15.6l5.6-5.6c3.1-3.1 5.6-6 5.6-6.5 0-.4 1.8-2.6 4.1-4.9 3.6-3.6 4.9-4.1 10.8-5 4.3-.6 9.8-.6 15.1 0 4.5.5 8.6.7 9.1.5.4-.3 1-.1 1.4.4.3.6 1.2.8 2 .5 1.7-.7 7.9 5.1 7 6.5-.3.6-.1 1.1.4 1.1.6 0 1.1.8 1.1 1.7.1 2.6 3.5 9.5 4.3 8.6.4-.3.7-.2.7.4 0 2.5 9.1 4 15.6 2.7 2.3-.4 2.9-1.1 2.9-3.2 0-1.5-.4-3.2-.8-3.9-.4-.6-.4-1.8-.1-2.7.4-.9.1-1.6-.6-1.6s-1-.6-.7-1.4c.6-1.5-1.3-8.9-2.6-10.2-.4-.4-.7-2.1-.7-3.7s-.9-6-2.1-9.8c-1.2-3.8-1.9-7.6-1.5-8.4.3-.8-.2-2.1-1-3-.8-.8-1.3-1.9-.9-2.4.3-.6-.1-2.6-.9-4.5-.9-2.3-1.1-3.7-.4-4.4 1.3-1.3.2-3.2-1.8-3.2-1 0-1.4-1-1.3-3.3.1-1.7-.6-5.4-1.4-8.1-.9-2.7-1.4-5.3-1.1-5.8.3-.5 0-1.6-.7-2.4-.6-.8-.9-1.7-.6-2 .3-.4-.6-3.2-2-6.3-1.4-3.1-2.5-6.4-2.5-7.4 0-.9-.4-1.7-1-1.7s-.9-.3-.5-.6c1.2-1.2-2.4-6.5-5.1-7.5-1.5-.6-4.5-1.2-6.7-1.4-3.6-.2-4.5.2-8.3 4zm6.9 33.5c.3 1.9.4 2.5 1.5 5.5 2.2 5.8 3.9 12 3.6 13.2-.2.7.1 1.3.6 1.3 1.7 0 .7 6.5-1.3 8.4-1.8 1.6-3.3 1.8-12.3 1.4-5.6-.3-10.5-.8-10.8-1.1-.4-.4-.2-1.3.4-2 .7-.8.9-1.7.5-2-.3-.4-.1-.7.5-.7s1.6-1.6 2.2-3.5c.6-1.9 1.6-3.5 2.1-3.5s.8-.3.8-.8c-.3-1.4 2.3-7.2 3.2-7.2.5 0 .9-.6.9-1.3 0-1.4 5.9-8.7 7.2-8.7.4 0 .9.4.9 1zm69.1-36.8c-.5.7-1.7 7.1-2.7 14.3-1 7.1-1.9 13.7-2.2 14.5-.3.8-.7 4.6-.9 8.5-.3 3.8-1 9.9-1.5 13.5-.6 3.6-1.1 8-1 9.9.1 1.8-.4 4-1 4.7-.6.8-.9 2.4-.5 3.7.3 1.3.3 2.7-.1 3-.3.4-.7 1.9-.8 3.4-.2 1.6-.8 6.6-1.4 11.2-.6 4.6-.8 8.7-.6 9.1.3.5.1 1.1-.5 1.5-.5.3-.7 1.8-.4 3.1.4 1.4.1 3.6-.7 5-1.1 2.1-1.1 2.7 0 3.3.7.5 15.5.8 32.9.7 36.7-.1 40.5-.7 42.8-6.3.8-1.9 1.2-3.9.8-4.5-.4-.7-.3-.8.4-.4 1.8 1.1 1.4-.2-.6-2.4-2.1-2.2-10.2-4.3-13.7-3.4-1.5.4-2.5.2-2.5-.5 0-.6-.9-1.1-2.1-1.1-1.1 0-1.8.4-1.5.9.6 1-11.1.7-12.1-.3-.3-.3-5-.6-10.4-.6-9.2 0-9.8-.1-10.5-2.2-.4-1.3-.2-2.4.4-2.6.6-.2.8-1 .5-1.7-.2-.8.3-5.2 1.3-9.7 1-4.6 1.9-10.3 2-12.8.2-2.5.5-6.1.8-8 .3-1.9 1-6.9 1.5-11s1.4-10.3 2-13.8c.5-3.5.8-6.9.5-7.7-.3-.8-.2-1.9.2-2.6.4-.6.9-5.1 1.1-9.9l.4-8.7-6.2-.7c-9.1-.9-12.5-.8-13.7.6z"/></svg>